<svg xmlns="http://www.w3.org/2000/svg" viewBox="0 0 307.35 65.23" fill="#ed1c24"><polygon class="cls-1" points="76.79 53.17 76.79 0 65.69 0 65.69 53.17 65.69 64.26 76.79 64.26 109.84 64.26 109.84 53.17 76.79 53.17"/><rect class="cls-1" y="53.17" width="47.39" height="11.1"/><rect class="cls-1" width="47.39" height="11.1"/><rect class="cls-1" y="26.58" width="43.34" height="11.1"/><rect class="cls-1" x="147.4" y="27.3" width="24.42" height="10.69"/><path class="cls-1" d="M230.74,224.68H219.65v9.56H209.21a21.6,21.6,0,1,1,0-43.2h21.53v-11H209.21a32.58,32.58,0,1,0,0,65.16h21.53v-.06h0Z" transform="translate(-58.92 -179.99)"/><rect class="cls-1" x="256.21" width="51.15" height="11.1"/><polygon class="cls-1" points="270.75 53.01 301.5 17.8 287.1 17.8 256.21 53.17 256.21 53.17 256.21 64.26 307.35 64.26 307.35 53.17 307.35 53.09 307.35 53.01 270.75 53.01"/><polygon class="cls-1" points="222.11 0 210.31 0 233.64 64.27 245.44 64.27 222.11 0"/><polygon class="cls-1" points="206.62 9.69 183.97 64.26 195.99 64.26 212.24 25.05 206.62 9.69"/><polygon class="cls-2" points="76.79 53.17 76.79 0 65.69 0 65.69 53.17 65.69 64.26 76.79 64.26 109.84 64.26 109.84 53.17 76.79 53.17"/><rect class="cls-2" y="53.17" width="47.39" height="11.1"/><rect class="cls-2" width="47.39" height="11.1"/><rect class="cls-2" y="26.58" width="43.34" height="11.1"/><rect class="cls-2" x="147.4" y="27.3" width="24.42" height="10.69"/><path class="cls-2" d="M230.74,224.68H219.65v9.56H209.21a21.6,21.6,0,1,1,0-43.2h21.53v-11H209.21a32.58,32.58,0,1,0,0,65.16h21.53v-.06h0Z" transform="translate(-58.92 -179.99)"/><rect class="cls-2" x="256.21" width="51.15" height="11.1"/><polygon class="cls-2" points="270.75 53.01 301.5 17.8 287.1 17.8 256.21 53.17 256.21 53.17 256.21 64.26 307.35 64.26 307.35 53.17 307.35 53.09 307.35 53.01 270.75 53.01"/><polygon class="cls-2" points="222.11 0 210.31 0 233.64 64.27 245.44 64.27 222.11 0"/><polygon class="cls-2" points="206.62 9.69 183.97 64.26 195.99 64.26 212.24 25.05 206.62 9.69"/><polygon class="cls-3" points="76.79 53.17 76.79 0 65.69 0 65.69 53.17 65.69 64.26 76.79 64.26 109.84 64.26 109.84 53.17 76.79 53.17"/><rect class="cls-3" y="53.17" width="47.39" height="11.1"/><rect class="cls-3" width="47.39" height="11.1"/><rect class="cls-3" y="26.58" width="43.34" height="11.1"/><rect class="cls-3" x="147.4" y="27.3" width="24.42" height="10.69"/><path class="cls-3" d="M230.74,224.68H219.65v9.56H209.21a21.6,21.6,0,1,1,0-43.2h21.53v-11H209.21a32.58,32.58,0,1,0,0,65.16h21.53v-.06h0Z" transform="translate(-58.92 -179.99)"/><rect class="cls-3" x="256.21" width="51.15" height="11.1"/><polygon class="cls-3" points="270.75 53.01 301.5 17.8 287.1 17.8 256.21 53.17 256.21 53.17 256.21 64.26 307.35 64.26 307.35 53.17 307.35 53.09 307.35 53.01 270.75 53.01"/><polygon class="cls-3" points="222.11 0 210.31 0 233.64 64.27 245.44 64.27 222.11 0"/><polygon class="cls-3" points="206.62 9.69 183.97 64.26 195.99 64.26 212.24 25.05 206.62 9.69"/></svg>