<svg width="0" height="0" class="hidden">
  <symbol xmlns="http://www.w3.org/2000/svg" fill="none" stroke="currentColor" stroke-width="1.5" stroke-linecap="round" stroke-linejoin="round" viewBox="0 0 24 24" id="ic_arr_hor">
    <polyline points="9 18 15 12 9 6"></polyline>
  </symbol>
  <symbol xmlns="http://www.w3.org/2000/svg" fill="none" stroke="currentColor" stroke-width="1.5" stroke-linecap="round" stroke-linejoin="round" viewBox="0 0 24 24" id="ic_arr_ver">
    <polyline points="6 9 12 15 18 9"></polyline>
  </symbol>
  <symbol xmlns="http://www.w3.org/2000/svg" fill="none" stroke="currentColor" stroke-width="1.5" stroke-linecap="round" stroke-linejoin="round" viewBox="0 0 24 24" id="ic_arrow_hor">
    <line x1="5" y1="12" x2="19" y2="12"></line>
    <polyline points="12 5 19 12 12 19"></polyline>
  </symbol>
  <symbol xmlns="http://www.w3.org/2000/svg" fill="none" stroke="currentColor" stroke-width="1" stroke-linecap="round" stroke-linejoin="round" viewBox="0 0 24 24" id="ic_close">
    <line x1="18" y1="6" x2="6" y2="18"></line>
    <line x1="6" y1="6" x2="18" y2="18"></line>
  </symbol>
  <symbol xmlns="http://www.w3.org/2000/svg" viewBox="0 0 24 24" id="ic_email">
    <path d="M4 4h16c1.1 0 2 .9 2 2v12c0 1.1-.9 2-2 2H4c-1.1 0-2-.9-2-2V6c0-1.1.9-2 2-2z" fill="none" stroke="currentColor" stroke-width="1" stroke-linecap="round" stroke-linejoin="round"></path>
    <polyline points="22,6 12,13 2,6" fill="none" stroke="currentColor" stroke-width="1" stroke-linecap="round" stroke-linejoin="round"></polyline>
  </symbol>
  <symbol version="1.1" xmlns="http://www.w3.org/2000/svg" xmlns:xlink="http://www.w3.org/1999/xlink" viewBox="0 0 24 24" id="ic_fb">
    <path d="M13.5,21.8883 C18.3113,21.1645 22,17.013 22,12 C22,6.47715 17.5228,2 12,2 C6.47715,2 2,6.47715 2,12 C2,17.013 5.68874,21.1645 10.5,21.8883 L10.5,15 L9,15 C8.17157,15 7.5,14.3284 7.5,13.5 C7.5,12.6716 8.17157,12 9,12 L10.5,12 L10.5,10 C10.5,8.067 12.067,6.5 14,6.5 L14.5,6.5 C15.3284,6.5 16,7.17157 16,8 C16,8.82843 15.3284,9.5 14.5,9.5 L14,9.5 C13.7239,9.5 13.5,9.72386 13.5,10 L13.5,12 L15,12 C15.8284,12 16.5,12.6716 16.5,13.5 C16.5,14.3284 15.8284,15 15,15 L13.5,15 L13.5,21.8883 Z" fill="currentColor"></path>
  </symbol>
  <symbol version="1.1" xmlns="http://www.w3.org/2000/svg" xmlns:xlink="http://www.w3.org/1999/xlink" viewBox="0 0 24 24" id="ic_instagram">
    <path d="M16,3 C18.7614,3 21,5.23858 21,8 L21,16 C21,18.7614 18.7614,21 16,21 L8,21 C5.23858,21 3,18.7614 3,16 L3,8 C3,5.23858 5.23858,3 8,3 L16,3 Z M12,8 C9.79086,8 8,9.79086 8,12 C8,14.2091 9.79086,16 12,16 C14.2091,16 16,14.2091 16,12 C16,9.79086 14.2091,8 12,8 Z M12,10 C13.1046,10 14,10.8954 14,12 C14,13.1046 13.1046,14 12,14 C10.8954,14 10,13.1046 10,12 C10,10.8954 10.8954,10 12,10 Z M16.5,6.5 C15.9477,6.5 15.5,6.94772 15.5,7.5 C15.5,8.05228 15.9477,8.5 16.5,8.5 C17.0523,8.5 17.5,8.05228 17.5,7.5 C17.5,6.94772 17.0523,6.5 16.5,6.5 Z" fill="currentColor"></path>
  </symbol>
  <symbol xmlns="http://www.w3.org/2000/svg" fill="none" stroke="currentColor" stroke-width="1.5" stroke-linecap="round" stroke-linejoin="round" viewBox="0 0 24 24" id="ic_menu">
    <line x1="3" y1="12" x2="21" y2="12"></line>
    <line x1="3" y1="6" x2="21" y2="6"></line>
    <line x1="3" y1="18" x2="21" y2="18"></line>
  </symbol>
  <symbol xmlns="http://www.w3.org/2000/svg" fill="none" stroke="currentColor" stroke-width="2" stroke-linecap="round" stroke-linejoin="round" viewBox="0 0 24 24" id="ic_phone">
    <polyline points="19 1 23 5 19 9"></polyline>
    <line x1="15" y1="5" x2="23" y2="5"></line>
    <path d="M22 16.92v3a2 2 0 0 1-2.18 2 19.79 19.79 0 0 1-8.63-3.07 19.5 19.5 0 0 1-6-6 19.79 19.79 0 0 1-3.07-8.67A2 2 0 0 1 4.11 2h3a2 2 0 0 1 2 1.72 12.84 12.84 0 0 0 .7 2.81 2 2 0 0 1-.45 2.11L8.09 9.91a16 16 0 0 0 6 6l1.27-1.27a2 2 0 0 1 2.11-.45 12.84 12.84 0 0 0 2.81.7A2 2 0 0 1 22 16.92z"></path>
  </symbol>
  <symbol xmlns="http://www.w3.org/2000/svg" fill="none" stroke="currentColor" stroke-width="1.5" stroke-linecap="round" stroke-linejoin="round" viewBox="0 0 24 24" id="ic_phone2">
    <path d="M15.05 5A5 5 0 0 1 19 8.95M15.05 1A9 9 0 0 1 23 8.94m-1 7.98v3a2 2 0 0 1-2.18 2 19.79 19.79 0 0 1-8.63-3.07 19.5 19.5 0 0 1-6-6 19.79 19.79 0 0 1-3.07-8.67A2 2 0 0 1 4.11 2h3a2 2 0 0 1 2 1.72 12.84 12.84 0 0 0 .7 2.81 2 2 0 0 1-.45 2.11L8.09 9.91a16 16 0 0 0 6 6l1.27-1.27a2 2 0 0 1 2.11-.45 12.84 12.84 0 0 0 2.81.7A2 2 0 0 1 22 16.92z"></path>
  </symbol>
  <symbol xmlns="http://www.w3.org/2000/svg" fill="none" stroke="currentColor" stroke-width="2" stroke-linecap="round" stroke-linejoin="round" viewBox="0 0 24 24" id="ic_search">
    <circle cx="11" cy="11" r="8"></circle>
    <line x1="21" y1="21" x2="16.65" y2="16.65"></line>
  </symbol>
  <symbol xmlns="http://www.w3.org/2000/svg" fill="none" stroke="currentColor" stroke-width="1.5" stroke-linecap="round" stroke-linejoin="round" viewBox="0 0 24 24" id="ic_slider_arrow">
    <line x1="19" y1="12" x2="5" y2="12"></line>
    <polyline points="12 19 5 12 12 5"></polyline>
  </symbol>
  <symbol version="1.1" xmlns="http://www.w3.org/2000/svg" xmlns:xlink="http://www.w3.org/1999/xlink" viewBox="0 0 24 24" id="ic_video_play">
    <path d="M5.66861,4.76019 C5.78724,3.78065 6.80341,3.19555 7.70988,3.58326 C8.77068,4.03697 11.151,5.11563 14.1712,6.85935 C17.1921,8.60347 19.3167,10.1258 20.2396,10.8174 C21.028,11.4082 21.0303,12.5803 20.2411,13.1729 C19.3266,13.8596 17.2277,15.3637 14.1701,17.129 C11.1115,18.8949 8.75886,19.9607 7.70749,20.4091 C6.80076,20.7957 5.78729,20.2095 5.66885,19.232 C5.53051,18.0902 5.27335,15.4973 5.27335,11.9951 C5.27335,8.49493 5.53021,5.90304 5.66861,4.76019 Z" fill="currentColor"></path>
  </symbol>
  <symbol xmlns="http://www.w3.org/2000/svg" fill="none" stroke="currentColor" stroke-width="1.5" stroke-linecap="round" stroke-linejoin="round" viewBox="0 0 24 24" id="ic_zoom">
    <path d="M8 3H5a2 2 0 0 0-2 2v3m18 0V5a2 2 0 0 0-2-2h-3m0 18h3a2 2 0 0 0 2-2v-3M3 16v3a2 2 0 0 0 2 2h3"></path>
  </symbol>
</svg>